<?xml version="1.0" encoding="UTF-8"?>
<svg width="700pt" height="700pt" version="1.1" viewBox="0 0 700 700" xmlns="http://www.w3.org/2000/svg">
 <path d="m350 560c-154.64 0-280-125.36-280-280s125.36-280 280-280 280 125.36 280 280-125.36 280-280 280zm-21.539-409.23v193.85c0 11.895 9.6445 21.535 21.539 21.535s21.539-9.6406 21.539-21.535v-193.85c0-11.895-9.6445-21.539-21.539-21.539s-21.539 9.6445-21.539 21.539zm21.539 280c11.895 0 21.539-9.6445 21.539-21.539s-9.6445-21.539-21.539-21.539-21.539 9.6445-21.539 21.539 9.6445 21.539 21.539 21.539z"/>
</svg>
